<svg version="1.1" id="Layer_1" xmlns="http://www.w3.org/2000/svg" xmlns:xlink="http://www.w3.org/1999/xlink" x="0px" y="0px"
	 width="100%" viewBox="0 0 666 505" enable-background="new 0 0 666 505" xml:space="preserve">
<path fill="#000000" opacity="1.000000" stroke="none" 
	d="
M488.000000,506.000000 
	C325.333344,506.000000 163.166672,506.000000 1.000000,506.000000 
	C1.000000,337.666656 1.000000,169.333328 1.000000,1.000000 
	C223.000000,1.000000 445.000000,1.000000 667.000000,1.000000 
	C667.000000,169.333328 667.000000,337.666656 667.000000,506.000000 
	C607.500000,506.000000 548.000000,506.000000 488.000000,506.000000 
M303.685120,338.322052 
	C293.668518,372.634766 283.651886,406.947479 273.635284,441.260162 
	C274.143524,441.506714 274.651794,441.753235 275.160034,441.999786 
	C330.566467,368.986969 385.972900,295.974152 441.379303,222.961365 
	C440.999603,222.391602 440.619873,221.821838 440.240143,221.252075 
	C413.208984,221.252075 386.177826,221.252075 358.120483,221.252075 
	C377.596008,163.077103 396.713593,105.971436 415.831146,48.865761 
	C415.220245,48.569977 414.609344,48.274193 413.998444,47.978409 
	C354.588440,123.659630 295.178406,199.340851 235.378098,275.519226 
	C241.020645,276.064667 245.852112,276.847565 250.697479,276.945984 
	C273.117188,277.401550 295.540894,277.658386 317.962555,278.023407 
	C319.181946,278.043274 320.395935,278.397858 321.832397,278.632568 
	C321.034210,281.477386 320.393066,283.762665 318.863739,286.016815 
	C280.416382,285.555939 241.969040,285.095062 202.524963,284.622253 
	C253.552246,216.709152 306.983673,152.338730 357.145874,84.366211 
	C295.812531,77.670166 252.640503,116.178894 242.420944,168.978531 
	C241.509674,168.978531 240.535019,168.999161 239.561783,168.971298 
	C238.904480,168.952469 238.216766,168.975082 237.597656,168.792572 
	C222.622406,164.377930 207.447556,161.623901 191.800171,164.044647 
	C183.001236,165.405899 174.134613,166.697357 165.544510,168.955978 
	C152.144882,172.479202 140.616562,179.610886 129.879517,188.419769 
	C117.947243,198.209274 109.404373,210.044983 103.810394,224.374344 
	C99.679886,234.954910 98.673569,245.799057 100.143822,256.787659 
	C101.186668,264.581848 102.684326,272.542816 105.535606,279.819366 
	C111.215050,294.313446 121.774620,305.185760 134.019287,314.578094 
	C151.044907,327.637726 170.520279,334.066223 191.586807,335.922272 
	C201.630234,336.807129 211.761307,336.824585 221.856506,336.969635 
	C248.940201,337.358765 276.025940,337.604797 303.685120,338.322052 
M422.013977,123.519920 
	C416.600128,117.940025 413.295746,110.164490 404.558411,106.470207 
	C393.470520,140.203537 382.585815,173.318710 371.582001,206.796204 
	C375.709412,207.230453 379.274994,207.918808 382.842926,207.931244 
	C410.499542,208.027618 438.157166,207.907623 465.813263,208.064636 
	C472.141968,208.100571 478.466003,208.951889 485.273010,209.464111 
	C453.632477,251.664200 422.263275,293.502380 390.591736,335.743835 
	C397.889282,336.204071 404.144348,336.967712 410.393463,336.922028 
	C427.649750,336.795746 444.908600,336.488342 462.156097,335.931885 
	C470.346161,335.667664 478.637390,335.353424 486.666260,333.881195 
	C510.213593,329.563263 529.313721,317.125122 544.353821,298.950897 
	C564.388916,274.740875 569.170166,246.011612 563.617615,216.153641 
	C558.906250,190.819183 544.814636,170.304489 523.588928,155.024231 
	C509.703125,145.027939 494.135742,139.008804 477.400085,137.273682 
	C464.228455,135.908066 450.747467,136.213364 437.826691,140.586716 
	C434.510834,141.709076 432.265930,141.061050 430.561127,137.355225 
	C428.406891,132.672348 425.256927,128.447556 422.013977,123.519920 
z"/>
<path fill="#479FF8" opacity="1.000000" stroke="none" 
	d="
M303.110840,337.907623 
	C276.025940,337.604797 248.940201,337.358765 221.856506,336.969635 
	C211.761307,336.824585 201.630234,336.807129 191.586807,335.922272 
	C170.520279,334.066223 151.044907,327.637726 134.019287,314.578094 
	C121.774620,305.185760 111.215050,294.313446 105.535606,279.819366 
	C102.684326,272.542816 101.186668,264.581848 100.143822,256.787659 
	C98.673569,245.799057 99.679886,234.954910 103.810394,224.374344 
	C109.404373,210.044983 117.947243,198.209274 129.879517,188.419769 
	C140.616562,179.610886 152.144882,172.479202 165.544510,168.955978 
	C174.134613,166.697357 183.001236,165.405899 191.800171,164.044647 
	C207.447556,161.623901 222.622406,164.377930 237.597656,168.792572 
	C238.216766,168.975082 238.904480,168.952469 239.561783,168.971298 
	C240.535019,168.999161 241.509674,168.978531 242.420944,168.978531 
	C252.640503,116.178894 295.812531,77.670166 357.145874,84.366211 
	C306.983673,152.338730 253.552246,216.709152 202.524963,284.622253 
	C241.969040,285.095062 280.416382,285.555939 319.292877,286.399323 
	C315.124817,301.978577 310.565094,317.186859 305.884033,332.357727 
	C305.282471,334.307312 304.050690,336.062408 303.110840,337.907623 
z"/>
<path fill="#479FF8" opacity="1.000000" stroke="none" 
	d="
M422.275208,123.772537 
	C425.256927,128.447556 428.406891,132.672348 430.561127,137.355225 
	C432.265930,141.061050 434.510834,141.709076 437.826691,140.586716 
	C450.747467,136.213364 464.228455,135.908066 477.400085,137.273682 
	C494.135742,139.008804 509.703125,145.027939 523.588928,155.024231 
	C544.814636,170.304489 558.906250,190.819183 563.617615,216.153641 
	C569.170166,246.011612 564.388916,274.740875 544.353821,298.950897 
	C529.313721,317.125122 510.213593,329.563263 486.666260,333.881195 
	C478.637390,335.353424 470.346161,335.667664 462.156097,335.931885 
	C444.908600,336.488342 427.649750,336.795746 410.393463,336.922028 
	C404.144348,336.967712 397.889282,336.204071 390.591736,335.743835 
	C422.263275,293.502380 453.632477,251.664200 485.273010,209.464111 
	C478.466003,208.951889 472.141968,208.100571 465.813263,208.064636 
	C438.157166,207.907623 410.499542,208.027618 382.842926,207.931244 
	C379.274994,207.918808 375.709412,207.230453 371.582001,206.796204 
	C382.585815,173.318710 393.470520,140.203537 404.558411,106.470207 
	C413.295746,110.164490 416.600128,117.940025 422.275208,123.772537 
z"/>
<path fill="#F2B13D" opacity="1.000000" stroke="none" 
	d="
M303.397980,338.114838 
	C304.050690,336.062408 305.282471,334.307312 305.884033,332.357727 
	C310.565094,317.186859 315.124817,301.978577 319.736938,286.414856 
	C320.393066,283.762665 321.034210,281.477386 321.832397,278.632568 
	C320.395935,278.397858 319.181946,278.043274 317.962555,278.023407 
	C295.540894,277.658386 273.117188,277.401550 250.697479,276.945984 
	C245.852112,276.847565 241.020645,276.064667 235.378098,275.519226 
	C295.178406,199.340851 354.588440,123.659630 413.998444,47.978409 
	C414.609344,48.274193 415.220245,48.569977 415.831146,48.865761 
	C396.713593,105.971436 377.596008,163.077103 358.120483,221.252075 
	C386.177826,221.252075 413.208984,221.252075 440.240143,221.252075 
	C440.619873,221.821838 440.999603,222.391602 441.379303,222.961365 
	C385.972900,295.974152 330.566467,368.986969 275.160034,441.999786 
	C274.651794,441.753235 274.143524,441.506714 273.635284,441.260162 
	C283.651886,406.947479 293.668518,372.634766 303.397980,338.114838 
z"/>
</svg>